<svg xmlns="http://www.w3.org/2000/svg" width="32" height="32" viewBox="0 0 32 32" fill="none">
  <path d="M16.7874 14.2562C16.7195 13.883 16.393 13.6 16.0002 13.6C15.5584 13.6 15.2002 13.9582 15.2002 14.4V21.6034L15.2131 21.7472C15.2808 22.1205 15.6075 22.4034 16.0002 22.4034C16.4421 22.4034 16.8002 22.0453 16.8002 21.6034V14.4L16.7874 14.2562Z" fill="#0C0C0C"/>
  <path d="M17.2781 10.8C17.2781 10.1372 16.7408 9.59998 16.0781 9.59998C15.4154 9.59998 14.8781 10.1372 14.8781 10.8C14.8781 11.4627 15.4154 12 16.0781 12C16.7408 12 17.2781 11.4627 17.2781 10.8Z" fill="#0C0C0C"/>
  <path d="M28.8 16C28.8 8.93075 23.0693 3.2 16 3.2C8.93076 3.2 3.20001 8.93075 3.20001 16C3.20001 23.0693 8.93076 28.8 16 28.8C23.0693 28.8 28.8 23.0693 28.8 16ZM4.80001 16C4.80001 9.81442 9.81443 4.8 16 4.8C22.1856 4.8 27.2 9.81442 27.2 16C27.2 22.1856 22.1856 27.2 16 27.2C9.81443 27.2 4.80001 22.1856 4.80001 16Z" fill="#0C0C0C"/>
</svg>