<svg width="24" height="24" viewBox="0 0 24 24" fill="none" xmlns="http://www.w3.org/2000/svg">
<path d="M12.0711 16.0108H17.9125C18.9767 16.0108 19.8125 15.1546 19.8125 14.1317V6.07898C19.8125 5.05618 18.9767 4.2 17.9125 4.2H5.0875C4.0233 4.2 3.1875 5.05618 3.1875 6.07898V14.1317C3.1875 15.1546 4.0233 16.0108 5.0875 16.0108H6.98641L6.9875 19.8L6.99161 19.7996L6.99346 19.7986L12.0711 16.0108ZM7.69875 20.7641C7.17356 21.1558 6.42938 21.0487 6.03656 20.525C5.88299 20.3202 5.8 20.0714 5.8 19.816L5.79925 17.2108H5.0875C3.38232 17.2108 2 15.8322 2 14.1317V6.07898C2 4.37851 3.38232 3 5.0875 3H17.9125C19.6176 3 21 4.37851 21 6.07898V14.1317C21 15.8322 19.6176 17.2108 17.9125 17.2108H12.4619L7.69875 20.7641Z" fill="#0C0C0C"/>
<path d="M9.66856 7.336C10.4152 7.336 11.0046 7.55467 11.4366 7.992C11.8686 8.424 12.0846 9.04533 12.0846 9.856V13H11.2846V11.456H8.05256V13H7.26856V9.856C7.26856 9.04533 7.48456 8.424 7.91656 7.992C8.34856 7.55467 8.93256 7.336 9.66856 7.336ZM11.2846 10.76V9.784C11.2846 9.21333 11.1406 8.78133 10.8526 8.488C10.5699 8.19467 10.1752 8.048 9.66856 8.048C9.1619 8.048 8.76456 8.19467 8.47656 8.488C8.1939 8.78133 8.05256 9.21333 8.05256 9.784V10.76H11.2846ZM15.099 8.096V12.304H16.179V13H13.219V12.304H14.299V8.096H13.219V7.4H16.179V8.096H15.099Z" fill="#0C0C0C"/>
</svg>
