<svg xmlns="http://www.w3.org/2000/svg" width="18" height="22" viewBox="0 0 18 22" fill="none">
  <path d="M14.6855 11.9188C14.6592 9.28062 16.8368 8.01528 16.9342 7.95135C15.7103 6.16192 13.8037 5.91639 13.125 5.88845C11.5037 5.72377 9.95979 6.84349 9.13726 6.84349C8.31641 6.84349 7.04557 5.91258 5.70106 5.93629C3.93238 5.96253 2.30213 6.96499 1.39196 8.54825C-0.44488 11.7347 0.922062 16.457 2.71191 19.0431C3.58694 20.3072 4.63046 21.7296 5.99951 21.6775C7.31904 21.6254 7.81688 20.8241 9.412 20.8241C11.0071 20.8241 11.455 21.6775 12.8507 21.6508C14.2697 21.625 15.1693 20.3626 16.0372 19.0935C17.0417 17.6249 17.4553 16.203 17.4799 16.131C17.449 16.1166 14.7138 15.0688 14.6855 11.9188Z" fill="white"/>
  <path d="M12.0629 4.17693C12.7889 3.29555 13.2808 2.07085 13.147 0.851654C12.0993 0.893987 10.831 1.54804 10.0787 2.42857C9.40476 3.21004 8.81548 4.45422 8.97338 5.6514C10.1422 5.74199 11.3343 5.05662 12.0629 4.17693Z" fill="white"/>
</svg>