<svg xmlns="http://www.w3.org/2000/svg" width="24" height="24" viewBox="0 0 24 24" fill="none">
  <path d="M3.5965 4.19521C3.5965 3.86385 3.86513 3.59521 4.1965 3.59521H4.72253C5.59486 3.59521 6.09572 4.16291 6.38584 4.72881C6.58465 5.11659 6.72781 5.58966 6.84611 5.99932H19.1999C19.9961 5.99932 20.5715 6.76061 20.3543 7.52666L18.5597 13.8561C18.267 14.8887 17.3242 15.6013 16.2508 15.6013H10.1557C9.07351 15.6013 8.1252 14.8771 7.84033 13.8331L7.06943 11.008C7.06469 10.9951 7.06034 10.982 7.05642 10.9687L5.82121 6.77139C5.77883 6.63214 5.73983 6.49717 5.70217 6.36687C5.58235 5.95223 5.47616 5.58478 5.31799 5.27626C5.12677 4.90326 4.95118 4.79521 4.72253 4.79521H4.1965C3.86513 4.79521 3.5965 4.52659 3.5965 4.19521ZM8.21366 10.6424L8.99801 13.5173C9.14044 14.0393 9.61459 14.4013 10.1557 14.4013H16.2508C16.7874 14.4013 17.2589 14.0451 17.4053 13.5287L19.1999 7.19932H7.20077L8.21366 10.6424Z" fill="#0C0C0C"/>
  <path d="M12 18.5993C12 19.5934 11.1941 20.3993 10.2 20.3993C9.20588 20.3993 8.39999 19.5934 8.39999 18.5993C8.39999 17.6052 9.20588 16.7993 10.2 16.7993C11.1941 16.7993 12 17.6052 12 18.5993ZM10.8 18.5993C10.8 18.268 10.5314 17.9993 10.2 17.9993C9.86863 17.9993 9.59999 18.268 9.59999 18.5993C9.59999 18.9308 9.86863 19.1993 10.2 19.1993C10.5314 19.1993 10.8 18.9308 10.8 18.5993Z" fill="#0C0C0C"/>
  <path d="M18 18.5993C18 19.5934 17.1941 20.3993 16.2 20.3993C15.2059 20.3993 14.4 19.5934 14.4 18.5993C14.4 17.6052 15.2059 16.7993 16.2 16.7993C17.1941 16.7993 18 17.6052 18 18.5993ZM16.8 18.5993C16.8 18.268 16.5313 17.9993 16.2 17.9993C15.8687 17.9993 15.6 18.268 15.6 18.5993C15.6 18.9308 15.8687 19.1993 16.2 19.1993C16.5313 19.1993 16.8 18.9308 16.8 18.5993Z" fill="#0C0C0C"/>
</svg>