<svg xmlns="http://www.w3.org/2000/svg" width="24" height="24" viewBox="0 0 24 24" fill="none">
  <path d="M4.90635 5.05887L4.97579 4.97579C5.18406 4.7675 5.50737 4.74437 5.74122 4.90635L5.82431 4.97579L12 11.1516L18.1757 4.97579C18.384 4.7675 18.7073 4.74437 18.9412 4.90635L19.0244 4.97579C19.2326 5.18406 19.2557 5.50737 19.0937 5.74122L19.0244 5.82431L12.8484 12L19.0244 18.1757C19.2326 18.384 19.2557 18.7073 19.0937 18.9412L19.0244 19.0244C18.816 19.2326 18.4928 19.2557 18.2589 19.0937L18.1757 19.0244L12 12.8484L5.82431 19.0244C5.61603 19.2326 5.29272 19.2557 5.05887 19.0937L4.97579 19.0244C4.7675 18.816 4.74437 18.4928 4.90635 18.2589L4.97579 18.1757L11.1516 12L4.97579 5.82431C4.7675 5.61603 4.74437 5.29272 4.90635 5.05887Z" fill="#0C0C0C"/>
  <path d="M4.90635 5.05887L4.97579 4.97579C5.18406 4.7675 5.50737 4.74437 5.74122 4.90635L5.82431 4.97579L12 11.1516L18.1757 4.97579C18.384 4.7675 18.7073 4.74437 18.9412 4.90635L19.0244 4.97579C19.2326 5.18406 19.2557 5.50737 19.0937 5.74122L19.0244 5.82431L12.8484 12L19.0244 18.1757C19.2326 18.384 19.2557 18.7073 19.0937 18.9412L19.0244 19.0244C18.816 19.2326 18.4928 19.2557 18.2589 19.0937L18.1757 19.0244L12 12.8484L5.82431 19.0244C5.61603 19.2326 5.29272 19.2557 5.05887 19.0937L4.97579 19.0244C4.7675 18.816 4.74437 18.4928 4.90635 18.2589L4.97579 18.1757L11.1516 12L4.97579 5.82431C4.7675 5.61603 4.74437 5.29272 4.90635 5.05887Z" fill="black" fill-opacity="0.2"/>
  <path d="M4.90635 5.05887L4.97579 4.97579C5.18406 4.7675 5.50737 4.74437 5.74122 4.90635L5.82431 4.97579L12 11.1516L18.1757 4.97579C18.384 4.7675 18.7073 4.74437 18.9412 4.90635L19.0244 4.97579C19.2326 5.18406 19.2557 5.50737 19.0937 5.74122L19.0244 5.82431L12.8484 12L19.0244 18.1757C19.2326 18.384 19.2557 18.7073 19.0937 18.9412L19.0244 19.0244C18.816 19.2326 18.4928 19.2557 18.2589 19.0937L18.1757 19.0244L12 12.8484L5.82431 19.0244C5.61603 19.2326 5.29272 19.2557 5.05887 19.0937L4.97579 19.0244C4.7675 18.816 4.74437 18.4928 4.90635 18.2589L4.97579 18.1757L11.1516 12L4.97579 5.82431C4.7675 5.61603 4.74437 5.29272 4.90635 5.05887Z" fill="black" fill-opacity="0.2"/>
  <path d="M4.90635 5.05887L4.97579 4.97579C5.18406 4.7675 5.50737 4.74437 5.74122 4.90635L5.82431 4.97579L12 11.1516L18.1757 4.97579C18.384 4.7675 18.7073 4.74437 18.9412 4.90635L19.0244 4.97579C19.2326 5.18406 19.2557 5.50737 19.0937 5.74122L19.0244 5.82431L12.8484 12L19.0244 18.1757C19.2326 18.384 19.2557 18.7073 19.0937 18.9412L19.0244 19.0244C18.816 19.2326 18.4928 19.2557 18.2589 19.0937L18.1757 19.0244L12 12.8484L5.82431 19.0244C5.61603 19.2326 5.29272 19.2557 5.05887 19.0937L4.97579 19.0244C4.7675 18.816 4.74437 18.4928 4.90635 18.2589L4.97579 18.1757L11.1516 12L4.97579 5.82431C4.7675 5.61603 4.74437 5.29272 4.90635 5.05887Z" fill="black" fill-opacity="0.2"/>
</svg>