<svg xmlns="http://www.w3.org/2000/svg" width="14" height="14" viewBox="0 0 14 14" fill="none">
  <path d="M13.5 6.99998C13.5 7.85358 13.3318 8.69881 13.0052 9.48742C12.6785 10.276 12.1997 10.9926 11.5962 11.5962C10.9926 12.1997 10.276 12.6785 9.48742 13.0052C8.69881 13.3318 7.85358 13.5 6.99998 13.5C5.27608 13.5 3.62279 12.8152 2.40381 11.5962C1.18482 10.3772 0.5 8.72389 0.5 6.99998C0.5 5.27608 1.18482 3.62279 2.40381 2.4038C3.62279 1.18482 5.27608 0.500001 6.99998 0.5C7.85358 0.5 8.69881 0.668127 9.48742 0.994781C10.276 1.32144 10.9926 1.80022 11.5962 2.4038C12.1997 3.00738 12.6785 3.72393 13.0052 4.51255C13.3318 5.30116 13.5 6.14639 13.5 6.99998Z" stroke="#808080" stroke-width="0.999999" stroke-linecap="round" stroke-linejoin="round"/>
  <path d="M9.83469 8.66084C9.51727 9.26261 9.03559 9.74044 8.45734 10.0272C7.87908 10.314 7.2333 10.3953 6.61065 10.2597C5.98801 10.1242 5.41977 9.77856 4.9858 9.2714C4.55183 8.76424 4.2739 8.12104 4.19104 7.43212C4.10817 6.7432 4.22454 6.04317 4.5238 5.43036C4.82306 4.81754 5.2902 4.32272 5.85957 4.01539C6.42895 3.70806 7.07196 3.60366 7.69833 3.71685C8.32469 3.83004 8.90294 4.15513 9.35184 4.64648" stroke="#808080" stroke-width="0.999999" stroke-linecap="round" stroke-linejoin="round"/>
</svg>