<svg xmlns="http://www.w3.org/2000/svg" width="32" height="32" viewBox="0 0 32 32" fill="none">
  <path d="M13.6 18C14.2628 18 14.8 17.4627 14.8 16.8C14.8 16.1373 14.2628 15.6 13.6 15.6C12.9373 15.6 12.4 16.1373 12.4 16.8C12.4 17.4627 12.9373 18 13.6 18Z" fill="#0C0C0C"/>
  <path d="M17.6 5.59999C17.6 5.36671 17.4982 5.14507 17.3211 4.99308C17.1441 4.8411 16.9097 4.77393 16.679 4.80918L5.47911 6.52118C5.0885 6.58089 4.79999 6.91684 4.79999 7.31199V24.688C4.79999 25.083 5.08844 25.419 5.479 25.4789L16.679 27.1925C16.9096 27.2277 17.1441 27.1606 17.3211 27.0086C17.4981 26.8566 17.6 26.6349 17.6 26.4016V16H25.8755L24.2805 17.3979C23.9486 17.689 23.9149 18.1942 24.2054 18.5269C24.4958 18.8594 25.0005 18.893 25.3325 18.6021L28.5272 15.8021C28.7006 15.6502 28.8 15.4307 28.8 15.2C28.8 14.9693 28.7006 14.7499 28.5272 14.5979L25.3325 11.7979C25.0005 11.507 24.4958 11.5407 24.2054 11.8732C23.9149 12.2057 23.9486 12.7111 24.2805 13.0021L25.8757 14.4H17.6V5.59999ZM16 6.53158V25.4699L6.39999 24.0011V7.999L16 6.53158Z" fill="#0C0C0C"/>
  <path d="M20 25.6H19.2V17.6H20.8V24.8C20.8 25.2418 20.4418 25.6 20 25.6Z" fill="#0C0C0C"/>
  <path d="M19.2 12.8V6.39999H20C20.4418 6.39999 20.8 6.75817 20.8 7.19999V12.8H19.2Z" fill="#0C0C0C"/>
</svg>