<svg xmlns="http://www.w3.org/2000/svg" width="32" height="32" viewBox="0 0 32 32" fill="none">
  <path d="M17.6 16C19.3674 16 20.8 17.4326 20.8 19.2V21.6C20.8 24.887 17.4592 27.2 12 27.2C6.54089 27.2 3.20001 24.887 3.20001 21.6V19.2C3.20001 17.4326 4.6327 16 6.40001 16H17.6ZM17.6 17.6H6.40001C5.51636 17.6 4.80001 18.3163 4.80001 19.2V21.6C4.80001 23.8514 7.3258 25.6 12 25.6C16.6743 25.6 19.2 23.8514 19.2 21.6V19.2C19.2 18.3163 18.4837 17.6 17.6 17.6ZM25.6 16C27.3674 16 28.8 17.4326 28.8 19.2V20C28.8 23.3418 26.2907 25.6 21.6 25.6C21.3739 25.6 21.153 25.5947 20.937 25.5843C21.2701 25.1971 21.5495 24.78 21.7722 24.3344L21.928 23.9936L21.9901 23.9944C25.5616 23.8899 27.2 22.3349 27.2 20V19.2C27.2 18.3163 26.4837 17.6 25.6 17.6L22.1264 17.5986C21.9154 17.0024 21.5899 16.4602 21.1765 15.9986L25.6 16ZM12 3.2C15.0928 3.2 17.6 5.7072 17.6 8.8C17.6 11.8928 15.0928 14.4 12 14.4C8.90721 14.4 6.40001 11.8928 6.40001 8.8C6.40001 5.7072 8.90721 3.2 12 3.2ZM23.2 6.4C25.4091 6.4 27.2 8.19086 27.2 10.4C27.2 12.6091 25.4091 14.4 23.2 14.4C20.9909 14.4 19.2 12.6091 19.2 10.4C19.2 8.19086 20.9909 6.4 23.2 6.4ZM12 4.8C9.79088 4.8 8.00001 6.59086 8.00001 8.8C8.00001 11.0091 9.79088 12.8 12 12.8C14.2091 12.8 16 11.0091 16 8.8C16 6.59086 14.2091 4.8 12 4.8ZM23.2 8C21.8746 8 20.8 9.07451 20.8 10.4C20.8 11.7255 21.8746 12.8 23.2 12.8C24.5255 12.8 25.6 11.7255 25.6 10.4C25.6 9.07451 24.5255 8 23.2 8Z" fill="#0C0C0C"/>
</svg>