<svg xmlns="http://www.w3.org/2000/svg" width="24" height="24" viewBox="0 0 24 24" fill="none">
  <path d="M12.5905 10.6924C12.5397 10.4125 12.2947 10.2002 12.0001 10.2002C11.6688 10.2002 11.4001 10.4688 11.4001 10.8002V16.2027L11.4098 16.3106C11.4606 16.5906 11.7056 16.8027 12.0001 16.8027C12.3316 16.8027 12.6001 16.5342 12.6001 16.2027V10.8002L12.5905 10.6924Z" fill="#0C0C0C"/>
  <path d="M12.5905 10.6924C12.5397 10.4125 12.2947 10.2002 12.0001 10.2002C11.6688 10.2002 11.4001 10.4688 11.4001 10.8002V16.2027L11.4098 16.3106C11.4606 16.5906 11.7056 16.8027 12.0001 16.8027C12.3316 16.8027 12.6001 16.5342 12.6001 16.2027V10.8002L12.5905 10.6924Z" fill="black" fill-opacity="0.2"/>
  <path d="M12.5905 10.6924C12.5397 10.4125 12.2947 10.2002 12.0001 10.2002C11.6688 10.2002 11.4001 10.4688 11.4001 10.8002V16.2027L11.4098 16.3106C11.4606 16.5906 11.7056 16.8027 12.0001 16.8027C12.3316 16.8027 12.6001 16.5342 12.6001 16.2027V10.8002L12.5905 10.6924Z" fill="black" fill-opacity="0.2"/>
  <path d="M12.5905 10.6924C12.5397 10.4125 12.2947 10.2002 12.0001 10.2002C11.6688 10.2002 11.4001 10.4688 11.4001 10.8002V16.2027L11.4098 16.3106C11.4606 16.5906 11.7056 16.8027 12.0001 16.8027C12.3316 16.8027 12.6001 16.5342 12.6001 16.2027V10.8002L12.5905 10.6924Z" fill="black" fill-opacity="0.2"/>
  <path d="M12.9585 8.1002C12.9585 7.60314 12.5556 7.2002 12.0585 7.2002C11.5615 7.2002 11.1586 7.60314 11.1586 8.1002C11.1586 8.59726 11.5615 9.0002 12.0585 9.0002C12.5556 9.0002 12.9585 8.59726 12.9585 8.1002Z" fill="#0C0C0C"/>
  <path d="M12.9585 8.1002C12.9585 7.60314 12.5556 7.2002 12.0585 7.2002C11.5615 7.2002 11.1586 7.60314 11.1586 8.1002C11.1586 8.59726 11.5615 9.0002 12.0585 9.0002C12.5556 9.0002 12.9585 8.59726 12.9585 8.1002Z" fill="black" fill-opacity="0.2"/>
  <path d="M12.9585 8.1002C12.9585 7.60314 12.5556 7.2002 12.0585 7.2002C11.5615 7.2002 11.1586 7.60314 11.1586 8.1002C11.1586 8.59726 11.5615 9.0002 12.0585 9.0002C12.5556 9.0002 12.9585 8.59726 12.9585 8.1002Z" fill="black" fill-opacity="0.2"/>
  <path d="M12.9585 8.1002C12.9585 7.60314 12.5556 7.2002 12.0585 7.2002C11.5615 7.2002 11.1586 7.60314 11.1586 8.1002C11.1586 8.59726 11.5615 9.0002 12.0585 9.0002C12.5556 9.0002 12.9585 8.59726 12.9585 8.1002Z" fill="black" fill-opacity="0.2"/>
  <path d="M21.6 11.9999C21.6 6.69797 17.302 2.3999 12 2.3999C6.69809 2.3999 2.40002 6.69797 2.40002 11.9999C2.40002 17.3019 6.69809 21.5999 12 21.5999C17.302 21.5999 21.6 17.3019 21.6 11.9999ZM3.60002 11.9999C3.60002 7.36071 7.36084 3.5999 12 3.5999C16.6392 3.5999 20.4 7.36071 20.4 11.9999C20.4 16.6391 16.6392 20.3999 12 20.3999C7.36084 20.3999 3.60002 16.6391 3.60002 11.9999Z" fill="#0C0C0C"/>
  <path d="M21.6 11.9999C21.6 6.69797 17.302 2.3999 12 2.3999C6.69809 2.3999 2.40002 6.69797 2.40002 11.9999C2.40002 17.3019 6.69809 21.5999 12 21.5999C17.302 21.5999 21.6 17.3019 21.6 11.9999ZM3.60002 11.9999C3.60002 7.36071 7.36084 3.5999 12 3.5999C16.6392 3.5999 20.4 7.36071 20.4 11.9999C20.4 16.6391 16.6392 20.3999 12 20.3999C7.36084 20.3999 3.60002 16.6391 3.60002 11.9999Z" fill="black" fill-opacity="0.2"/>
  <path d="M21.6 11.9999C21.6 6.69797 17.302 2.3999 12 2.3999C6.69809 2.3999 2.40002 6.69797 2.40002 11.9999C2.40002 17.3019 6.69809 21.5999 12 21.5999C17.302 21.5999 21.6 17.3019 21.6 11.9999ZM3.60002 11.9999C3.60002 7.36071 7.36084 3.5999 12 3.5999C16.6392 3.5999 20.4 7.36071 20.4 11.9999C20.4 16.6391 16.6392 20.3999 12 20.3999C7.36084 20.3999 3.60002 16.6391 3.60002 11.9999Z" fill="black" fill-opacity="0.2"/>
  <path d="M21.6 11.9999C21.6 6.69797 17.302 2.3999 12 2.3999C6.69809 2.3999 2.40002 6.69797 2.40002 11.9999C2.40002 17.3019 6.69809 21.5999 12 21.5999C17.302 21.5999 21.6 17.3019 21.6 11.9999ZM3.60002 11.9999C3.60002 7.36071 7.36084 3.5999 12 3.5999C16.6392 3.5999 20.4 7.36071 20.4 11.9999C20.4 16.6391 16.6392 20.3999 12 20.3999C7.36084 20.3999 3.60002 16.6391 3.60002 11.9999Z" fill="black" fill-opacity="0.2"/>
</svg>