<svg xmlns="http://www.w3.org/2000/svg" width="25" height="24" viewBox="0 0 25 24" fill="none">
  <g clip-path="url(#clip0_2052_90)">
    <path d="M12.5 15.75C14.5711 15.75 16.25 14.0711 16.25 12C16.25 9.92893 14.5711 8.25 12.5 8.25C10.4289 8.25 8.75 9.92893 8.75 12C8.75 14.0711 10.4289 15.75 12.5 15.75Z" stroke="#0C0C0C" stroke-width="1.2" stroke-linecap="round" stroke-linejoin="round"/>
    <path d="M16.625 3.375H8.375C5.88972 3.375 3.875 5.38972 3.875 7.875V16.125C3.875 18.6103 5.88972 20.625 8.375 20.625H16.625C19.1103 20.625 21.125 18.6103 21.125 16.125V7.875C21.125 5.38972 19.1103 3.375 16.625 3.375Z" stroke="#0C0C0C" stroke-width="1.2" stroke-linecap="round" stroke-linejoin="round"/>
    <path d="M17.375 8.0625C17.8928 8.0625 18.3125 7.64277 18.3125 7.125C18.3125 6.60723 17.8928 6.1875 17.375 6.1875C16.8572 6.1875 16.4375 6.60723 16.4375 7.125C16.4375 7.64277 16.8572 8.0625 17.375 8.0625Z" fill="#0C0C0C"/>
  </g>
  <defs>
    <clipPath id="clip0_2052_90">
      <rect width="24" height="24" fill="white" transform="translate(0.5)"/>
    </clipPath>
  </defs>
</svg>