<svg xmlns="http://www.w3.org/2000/svg" width="24" height="24" viewBox="0 0 24 24" fill="none">
  <path d="M12.5958 20.1635L20.089 12.5994C22.1102 10.5464 22.1039 7.23069 20.0687 5.17509C18.0733 3.1596 14.8753 3.1075 12.8374 5.02913C12.7934 5.07057 12.7501 5.11291 12.7073 5.15617L11.9916 5.88041L11.2661 5.14765C11.2263 5.10749 11.1861 5.06809 11.1454 5.02949C9.10313 3.09281 5.89984 3.12241 3.91346 5.12878C1.88747 7.17514 1.89736 10.5001 3.93214 12.5553L11.4644 20.1635C11.7768 20.4789 12.2834 20.4789 12.5958 20.1635ZM13.56 6.00045C15.1157 4.42972 17.643 4.43055 19.216 6.01935C20.7904 7.60957 20.7926 10.1729 19.235 11.7563L19.2338 11.7575L12.0302 19.0293L4.78491 11.7111C3.20889 10.1193 3.20743 7.54753 4.76621 5.97305C6.31829 4.40537 8.8438 4.40659 10.4134 5.99193L11.5656 7.15577C11.8006 7.39308 12.1841 7.3929 12.4188 7.15536L13.56 6.00045Z" fill="#0C0C0C"/>
</svg>