<svg xmlns="http://www.w3.org/2000/svg" width="24" height="24" viewBox="0 0 24 24" fill="none">
  <path d="M15.6 10.8C15.6 12.7882 13.9883 14.4 12 14.4C10.0118 14.4 8.40002 12.7882 8.40002 10.8C8.40002 8.81173 10.0118 7.19995 12 7.19995C13.9883 7.19995 15.6 8.81173 15.6 10.8ZM14.4 10.8C14.4 9.47447 13.3255 8.39995 12 8.39995C10.6745 8.39995 9.60002 9.47447 9.60002 10.8C9.60002 12.1255 10.6745 13.2 12 13.2C13.3255 13.2 14.4 12.1255 14.4 10.8Z" fill="#0C0C0C"/>
  <path d="M17.9396 16.7459C21.2201 13.464 21.2201 8.14312 17.9396 4.86129C14.6593 1.57944 9.34068 1.57944 6.06028 4.86129C2.77987 8.14312 2.77987 13.464 6.06028 16.7459L7.88551 18.5445L10.3369 20.9266L10.4963 21.0679C11.426 21.8215 12.7874 21.7745 13.6633 20.9268L16.5867 18.0828L17.9396 16.7459ZM6.90597 5.70733C9.71931 2.89277 14.2807 2.89277 17.094 5.70733C19.8353 8.44974 19.9055 12.8524 17.3048 15.6799L17.094 15.8998L15.5084 17.4646L12.8317 20.0669L12.7202 20.1624C12.2951 20.4838 11.7051 20.4837 11.2801 20.1623L11.1685 20.0668L7.59154 16.5803L6.90597 15.8998L6.6951 15.6799C4.09447 12.8524 4.16476 8.44974 6.90597 5.70733Z" fill="#0C0C0C"/>
</svg>