<svg xmlns="http://www.w3.org/2000/svg" width="232" height="80" viewBox="0 0 232 80" fill="none">
  <path d="M32.7002 67.1149C37.3716 67.1149 41.7094 65.6209 45.7135 62.6331C46.3067 63.2306 46.8258 64.127 47.2707 65.3221C47.7156 66.5173 47.938 67.563 47.938 68.4594C47.938 69.8039 47.0482 71.3726 45.2686 73.1653C43.489 74.8833 41.005 76.3772 37.8166 77.6471C34.7022 78.9169 31.1801 79.5518 27.2502 79.5518C21.7631 79.5518 16.9433 78.3567 12.7909 75.9664C8.71264 73.5761 5.56126 70.1027 3.33675 65.5462C1.11225 60.9897 0 55.6116 0 49.4118C0 43.0626 1.1864 37.4977 3.5592 32.7171C6.00616 27.9365 9.34291 24.2764 13.5695 21.7367C17.796 19.1223 22.5787 17.8151 27.9175 17.8151C34.6652 17.8151 40.041 19.7946 44.0452 23.7535C48.0493 27.7124 50.0513 33.2026 50.0513 40.2241C50.0513 43.5107 49.5323 46.1251 48.4942 48.0672C47.4561 49.9346 45.6023 50.8684 42.9329 50.8684H18.9083C19.3532 61.6993 23.9505 67.1149 32.7002 67.1149ZM27.2502 25.5462C24.9515 25.5462 23.0236 26.8534 21.4665 29.4678C19.9093 32.0075 19.0566 36.3025 18.9083 42.3529H30.142C31.3284 42.3529 32.107 41.9421 32.4777 41.1205C32.8485 40.2988 33.0339 39.0289 33.0339 37.3109C33.0339 32.9038 32.5148 29.8413 31.4767 28.1233C30.4386 26.4052 29.0298 25.5462 27.2502 25.5462Z" fill="#D20000"/>
  <path d="M55.3849 62.7451C55.3849 57.7404 57.0162 53.7815 60.2788 50.8684C63.5414 47.9552 68.3612 46.4986 74.7381 46.4986C76.9626 46.4986 79.2242 46.7227 81.5228 47.1709C83.8956 47.619 85.8235 48.2166 87.3065 48.9636V34.0616C87.3065 31.0738 86.565 28.9449 85.082 27.6751C83.599 26.3305 81.597 25.6583 79.0759 25.6583C76.6289 25.6583 74.6269 26.2558 73.0697 27.451C74.4786 27.8992 75.5167 28.6835 76.184 29.8039C76.9255 30.8497 77.2963 32.0448 77.2963 33.3894C77.2963 35.7796 76.4435 37.7218 74.7381 39.2157C73.0326 40.7096 70.8823 41.4566 68.287 41.4566C65.4693 41.4566 63.2077 40.6349 61.5023 38.9916C59.7968 37.3483 58.9441 35.2194 58.9441 32.605C58.9441 29.9907 59.8339 27.5257 61.6135 25.2101C63.3931 22.8945 66.0996 21.0271 69.7329 19.6078C73.4405 18.1886 78.0007 17.479 83.4136 17.479C90.7545 17.479 96.3158 19.0103 100.097 22.0728C103.879 25.0607 105.77 29.4678 105.77 35.2941V64.986C105.77 68.5714 107.475 70.7376 110.886 71.4846V75.07C109.922 76.4146 108.328 77.4603 106.104 78.2073C103.879 78.9543 101.617 79.3277 99.3188 79.3277C94.2766 79.3277 90.7174 77.5724 88.6412 74.0616C86.9358 75.5556 84.8596 76.8254 82.4126 77.8712C79.9657 78.8422 77.185 79.3277 74.0707 79.3277C68.5095 79.3277 63.9863 77.7965 60.5013 74.7339C57.0904 71.5966 55.3849 67.6004 55.3849 62.7451ZM87.3065 57.591C86.4909 57.0682 85.4898 56.62 84.3034 56.2465C83.1912 55.873 82.116 55.6863 81.0779 55.6863C79.0017 55.6863 77.2962 56.3585 75.9615 57.7031C74.6268 58.9729 73.9595 60.8403 73.9595 63.3053C73.9595 65.3221 74.6268 67.0028 75.9615 68.3474C77.2962 69.6172 79.0759 70.2521 81.3004 70.2521C82.4126 70.2521 83.4878 70.1027 84.5259 69.8039C85.6381 69.4304 86.565 68.9823 87.3065 68.4594V57.591Z" fill="#D20000"/>
  <path d="M138.371 29.1317V60.7283C138.371 62.9692 138.816 64.5378 139.706 65.4342C140.596 66.2558 141.856 66.6667 143.487 66.6667C144.896 66.6667 146.379 66.2932 147.936 65.5462C149.494 64.7993 150.717 63.8656 151.607 62.7451C152.348 63.3427 152.867 64.239 153.164 65.4342C153.535 66.6293 153.72 67.7124 153.72 68.6835C153.72 70.4015 153.127 72.0822 151.94 73.7255C150.754 75.3688 148.974 76.7134 146.602 77.7591C144.229 78.8049 141.374 79.3277 138.037 79.3277C132.847 79.3277 128.657 77.8338 125.469 74.8459C122.355 71.8581 120.797 66.8908 120.797 59.944V29.1317H113.79V22.2969C115.718 21.9981 117.572 20.7656 119.352 18.5994C121.205 16.3585 122.762 13.5948 124.023 10.3081C125.358 6.94678 126.21 3.62278 126.581 0.336137C127.916 0.112046 129.139 0 130.252 0C132.921 0 134.886 0.784315 136.147 2.35294C137.481 3.84687 138.149 5.52754 138.149 7.39496V19.1597H151.051C151.051 21.4006 150.939 23.3427 150.717 24.986C150.495 26.5546 150.013 27.9365 149.271 29.1317H138.371Z" fill="#D20000"/>
  <path d="M180.298 79.6639C176.664 79.6639 173.031 79.141 169.398 78.0952C165.838 76.9748 162.91 75.4062 160.611 73.3894C158.312 71.3726 157.163 68.9823 157.163 66.2185C157.163 63.6041 157.904 61.5126 159.387 59.944C160.87 58.3007 162.761 57.479 165.06 57.479C167.136 57.479 168.879 58.1513 170.287 59.4958C171.77 60.8403 172.512 62.5957 172.512 64.7619C172.512 65.733 172.364 66.592 172.067 67.3389C171.845 68.0112 171.4 68.7582 170.732 69.5798C171.326 70.1774 172.438 70.6629 174.069 71.0364C175.7 71.3352 177.443 71.4846 179.297 71.4846C181.818 71.4846 183.783 71.0364 185.192 70.1401C186.675 69.169 187.416 67.9365 187.416 66.4426C187.416 64.4258 186.489 62.7078 184.635 61.2885C182.782 59.7946 179.816 57.9645 175.737 55.7983C171.585 53.5574 168.434 51.7274 166.283 50.3081C164.133 48.8142 162.205 46.8347 160.5 44.3698C158.868 41.8301 158.053 38.7302 158.053 35.07C158.053 29.9907 160.129 25.8824 164.281 22.7451C168.434 19.6078 174.18 18.0392 181.521 18.0392C188.714 18.0392 194.053 19.3464 197.538 21.9608C201.097 24.5005 202.876 27.563 202.876 31.1485C202.876 33.3894 202.135 35.2194 200.652 36.6387C199.243 38.0579 197.501 38.7675 195.424 38.7675C193.496 38.7675 191.828 38.2073 190.419 37.0868C189.084 35.8917 188.417 34.3604 188.417 32.493C188.417 31.5219 188.565 30.5509 188.862 29.5798C189.159 28.5341 189.566 27.6751 190.085 27.0028C188.602 25.8077 186.378 25.2101 183.412 25.2101C181.039 25.2101 179.185 25.7703 177.851 26.8908C176.516 28.0112 175.849 29.4304 175.849 31.1485C175.849 33.4641 176.776 35.3688 178.629 36.8628C180.483 38.3567 183.449 40.1494 187.527 42.2409C191.383 44.2577 194.423 46.0131 196.648 47.507C198.872 49.0009 200.8 50.9804 202.431 53.4454C204.063 55.9104 204.878 58.9356 204.878 62.521C204.878 68.3473 202.506 72.6797 197.76 75.5182C193.089 78.282 187.268 79.6639 180.298 79.6639Z" fill="#D20000"/>
  <path d="M232 68.9076C232 72.1942 230.962 74.8833 228.886 76.9748C226.809 78.9916 224.103 80 220.766 80C217.355 80 214.612 78.9916 212.536 76.9748C210.459 74.8833 209.421 72.1942 209.421 68.9076C209.421 65.5462 210.459 62.8572 212.536 60.8403C214.612 58.8235 217.355 57.8151 220.766 57.8151C224.103 57.8151 226.809 58.8235 228.886 60.8403C230.962 62.8572 232 65.5462 232 68.9076Z" fill="#D20000"/>
</svg>