<svg xmlns="http://www.w3.org/2000/svg" width="42" height="32" viewBox="0 0 42 32" fill="none">
  <g clip-path="url(#clip0_2047_4386)">
    <path fill-rule="evenodd" clip-rule="evenodd" d="M41.1667 12.9087C41.1667 19.7619 35.5823 25.3174 28.6937 25.3174C21.8051 25.3174 16.2207 19.7619 16.2207 12.9087C16.2207 6.05557 21.8051 0.5 28.6937 0.5C35.5823 0.5 41.1667 6.05557 41.1667 12.9087Z" fill="#F79F1A"/>
    <path fill-rule="evenodd" clip-rule="evenodd" d="M25.7792 12.9087C25.7792 19.7619 20.1949 25.3174 13.3063 25.3174C6.4176 25.3174 0.833252 19.7619 0.833252 12.9087C0.833252 6.05557 6.4176 0.5 13.3063 0.5C20.1949 0.5 25.7792 6.05557 25.7792 12.9087Z" fill="#EA001B"/>
    <path fill-rule="evenodd" clip-rule="evenodd" d="M20.9998 3.14047C18.0896 5.4121 16.2214 8.94208 16.2214 12.9075C16.2214 16.873 18.0896 20.4057 20.9998 22.6773C23.9101 20.4057 25.7782 16.873 25.7782 12.9075C25.7782 8.94208 23.9101 5.4121 20.9998 3.14047Z" fill="#FF5F01"/>
    <path d="M41.1432 19.4928V19.0499H41.0268L40.8928 19.3545L40.7588 19.0499H40.6424V19.4928H40.7246V19.1588L40.8502 19.4467H40.9354L41.061 19.158V19.4928H41.1432ZM40.4057 19.4928V19.1255H40.5549V19.0507H40.175V19.1255H40.3242V19.4928H40.4057Z" fill="#F79F1A"/>
    <path d="M3.60793 31.4559H2.90015V28.1761H3.59406V28.5757C3.59406 28.5757 4.20353 28.0873 4.56553 28.0934C5.26938 28.1053 5.68966 28.6998 5.68966 28.6998C5.68966 28.6998 6.03059 28.0934 6.79991 28.0934C7.93757 28.0934 8.10446 29.127 8.10446 29.127V31.4421H7.42443V29.4026C7.42443 29.4026 7.42687 28.7824 6.68889 28.7824C5.92574 28.7824 5.8562 29.4026 5.8562 29.4026V31.4421H5.14841V29.3888C5.14841 29.3888 5.08042 28.7411 4.44062 28.7411C3.60969 28.7411 3.59406 29.4026 3.59406 29.4026L3.60793 31.4559Z" fill="black"/>
    <path d="M25.1326 28.093C24.7706 28.0869 24.1612 28.5753 24.1612 28.5753V28.1765H23.4666V31.4555H24.1748L24.1612 29.4024C24.1612 29.4024 24.1769 28.7423 25.0078 28.7423C25.1621 28.7423 25.282 28.7794 25.3768 28.8366V28.8339L25.6075 28.1954C25.4683 28.1372 25.31 28.096 25.1326 28.093Z" fill="black"/>
    <path d="M35.1028 28.093C34.7408 28.0869 34.1314 28.5753 34.1314 28.5753V28.1765H33.4368V31.4555H34.145L34.1314 29.4024C34.1314 29.4024 34.1471 28.7423 34.978 28.7423C35.1323 28.7423 35.2522 28.7794 35.347 28.8366V28.8339L35.5777 28.1954C35.4385 28.1372 35.2802 28.096 35.1028 28.093Z" fill="black"/>
    <path d="M10.3932 28.0795C9.33391 28.0795 8.77335 29.0248 8.77052 29.8147C8.76761 30.6242 9.40867 31.5579 10.423 31.5579C11.0148 31.5579 11.5009 31.1241 11.5009 31.1241L11.4996 31.4582H12.1963V28.1752H11.4972V28.5887C11.4972 28.5887 11.0406 28.0795 10.3932 28.0795ZM10.5288 28.7477C11.0979 28.7477 11.5599 29.2392 11.5599 29.8443C11.5599 30.4494 11.0979 30.9382 10.5288 30.9382C9.95973 30.9382 9.50044 30.4494 9.50044 29.8443C9.50044 29.2392 9.95973 28.7477 10.5288 28.7477Z" fill="black"/>
    <path d="M30.7108 28.0795C29.6515 28.0795 29.091 29.0248 29.0881 29.8147C29.0852 30.6242 29.7263 31.5579 30.7406 31.5579C31.3324 31.5579 31.8185 31.1241 31.8185 31.1241L31.8172 31.4582H32.5139V28.1752H31.8148V28.5887C31.8148 28.5887 31.3583 28.0795 30.7108 28.0795ZM30.8465 28.7477C31.4156 28.7477 31.8776 29.2392 31.8776 29.8443C31.8776 30.4494 31.4156 30.9382 30.8465 30.9382C30.2774 30.9382 29.8181 30.4494 29.8181 29.8443C29.8181 29.2392 30.2774 28.7477 30.8465 28.7477Z" fill="black"/>
    <path d="M37.4 28.0795C36.3407 28.0795 35.7802 29.0248 35.7774 29.8147C35.7744 30.6242 36.4155 31.5579 37.4298 31.5579C38.0216 31.5579 38.5077 31.1241 38.5077 31.1241L38.5065 31.4582H39.2031V26.8792H38.504V28.5887C38.504 28.5887 38.0475 28.0795 37.4 28.0795ZM37.5357 28.7477C38.1048 28.7477 38.5668 29.2393 38.5668 29.8443C38.5668 30.4494 38.1048 30.9382 37.5357 30.9382C36.9666 30.9382 36.5073 30.4494 36.5073 29.8443C36.5073 29.2393 36.9666 28.7477 37.5357 28.7477Z" fill="black"/>
    <path d="M14.3219 31.5661C13.6003 31.5661 12.9341 31.1252 12.9341 31.1252L13.2394 30.6566C13.2394 30.6566 13.8697 30.946 14.3219 30.946C14.6157 30.946 15.107 30.8518 15.113 30.5602C15.1192 30.2519 14.2872 30.1605 14.2872 30.1605C14.2872 30.1605 13.0451 30.1437 13.0451 29.127C13.0451 28.4876 13.6654 28.0797 14.4607 28.0797C14.9202 28.0797 15.7791 28.4793 15.7791 28.4793L15.4322 29.0167C15.4322 29.0167 14.769 28.7536 14.419 28.7411C14.1236 28.7305 13.7668 28.871 13.7668 29.127C13.7668 29.8224 15.8346 29.0728 15.8346 30.4775C15.8346 31.399 14.9925 31.5661 14.3219 31.5661Z" fill="black"/>
    <path d="M16.9841 27.2254V28.1792H16.3682V28.8689H16.9841V30.5179C16.9841 30.5179 16.9296 31.6334 18.1373 31.6334C18.4712 31.6334 19.125 31.3882 19.125 31.3882L18.8455 30.6715C18.8455 30.6715 18.5856 30.8917 18.292 30.8843C17.7339 30.8703 17.7493 30.5152 17.7493 30.5152V28.8689H18.8998V28.1792H17.7493V27.2254H16.9841Z" fill="black"/>
    <path d="M21.1764 28.1199C20.0406 28.1199 19.4731 29.0488 19.4778 29.8551C19.4826 30.6842 19.9946 31.6172 21.2443 31.6172C21.7792 31.6172 22.5304 31.1511 22.5304 31.1511L22.2075 30.5933C22.2075 30.5933 21.6949 30.9544 21.2443 30.9544C20.3421 30.9544 20.2837 30.0787 20.2837 30.0787H22.6987C22.6987 30.0787 22.8788 28.1199 21.1764 28.1199ZM21.0733 28.7639C21.1001 28.7623 21.1288 28.7639 21.1574 28.7639C22.0074 28.7639 22.0013 29.5614 22.0013 29.5614H20.2837C20.2837 29.5614 20.2431 28.8107 21.0733 28.7639Z" fill="black"/>
    <path d="M28.3597 30.5849L28.6835 31.228C28.6835 31.228 28.1702 31.5593 27.5942 31.5593C26.4017 31.5593 25.7395 30.6681 25.7395 29.8248C25.7395 28.4995 26.7933 28.1098 27.5059 28.1098C28.1527 28.1098 28.7129 28.4801 28.7129 28.4801L28.3499 29.1232C28.3499 29.1232 28.1297 28.7822 27.4863 28.7822C26.8439 28.7822 26.5049 29.3321 26.5049 29.8541C26.5049 30.439 26.8995 30.9357 27.4961 30.9357C27.9641 30.9357 28.3597 30.5849 28.3597 30.5849Z" fill="black"/>
    <path d="M40.6639 31.0058C40.5659 31.0082 40.4851 31.0405 40.4216 31.1027C40.3581 31.1649 40.3252 31.2427 40.323 31.3362C40.3252 31.429 40.3581 31.5066 40.4216 31.5692C40.4851 31.6317 40.5659 31.6642 40.6639 31.6666C40.7597 31.6642 40.8395 31.6317 40.9032 31.5692C40.9669 31.5066 41 31.429 41.0024 31.3362C41 31.2427 40.967 31.1649 40.9035 31.1027C40.8399 31.0405 40.7601 31.0082 40.6639 31.0058ZM40.6639 31.5938C40.5892 31.5919 40.5276 31.5668 40.4791 31.5184C40.4306 31.47 40.4055 31.4093 40.4037 31.3362C40.4055 31.2628 40.4306 31.2021 40.4791 31.1541C40.5276 31.1061 40.5892 31.0812 40.6639 31.0795C40.7371 31.0812 40.7977 31.1061 40.8459 31.1541C40.8941 31.2021 40.919 31.2628 40.9208 31.3362C40.919 31.4093 40.8941 31.47 40.8459 31.5184C40.7977 31.5668 40.7371 31.5919 40.6639 31.5938ZM40.6835 31.1815H40.5408V31.4885H40.6068V31.3735H40.637L40.7308 31.4885H40.8099L40.7088 31.3727C40.7404 31.3687 40.7647 31.3586 40.7817 31.3422C40.7987 31.3258 40.8073 31.3049 40.8075 31.2795C40.8072 31.2492 40.7965 31.2254 40.7751 31.2081C40.7538 31.1907 40.7233 31.1819 40.6835 31.1815ZM40.6827 31.239C40.7004 31.2391 40.7143 31.2425 40.7244 31.2493C40.7344 31.2561 40.7396 31.2662 40.7398 31.2795C40.7396 31.2933 40.7344 31.3036 40.7244 31.3105C40.7143 31.3174 40.7004 31.3208 40.6827 31.3208H40.6068V31.239L40.6827 31.239Z" fill="black"/>
  </g>
  <defs>
    <clipPath id="clip0_2047_4386">
      <rect width="40.3333" height="31.1667" fill="white" transform="translate(0.833252 0.5)"/>
    </clipPath>
  </defs>
</svg>