<svg xmlns="http://www.w3.org/2000/svg" width="24" height="24" viewBox="0 0 24 24" fill="none">
  <path d="M11.4 3.6001C11.6946 3.6001 11.9395 3.81235 11.9903 4.09224L12 4.2001V7.8001C12 9.25129 10.9696 10.4618 9.60052 10.74L9.6 19.8001C9.6 20.1314 9.33137 20.4001 9 20.4001C8.70545 20.4001 8.46047 20.1878 8.40967 19.908L8.4 19.8001L8.40068 10.7402C7.09622 10.4757 6.09896 9.36492 6.00694 8.00575L6 7.8001V4.2001C6 3.86873 6.26863 3.6001 6.6 3.6001C6.89455 3.6001 7.13953 3.81235 7.19033 4.09224L7.2 4.2001V7.8001C7.2 8.58396 7.70105 9.25079 8.40035 9.4978L8.4 4.2001C8.4 3.86873 8.66863 3.6001 9 3.6001C9.29455 3.6001 9.53953 3.81235 9.59033 4.09224L9.6 4.2001L9.60084 9.49738C10.2458 9.26907 10.7218 8.68357 10.7913 7.97867L10.8 7.8001V4.2001C10.8 3.86873 11.0686 3.6001 11.4 3.6001ZM17.4 3.6001C17.6946 3.6001 17.9395 3.81235 17.9903 4.09224L18 4.2001V19.8001C18 20.1314 17.7313 20.4001 17.4 20.4001C17.1054 20.4001 16.8605 20.1878 16.8097 19.908L16.8 19.8001V13.2001H15C14.7054 13.2001 14.4605 12.9878 14.4097 12.708L14.4 12.6001V6.6001C14.4 4.94325 15.7432 3.6001 17.4 3.6001ZM16.8 12.0001V4.90252C16.1546 5.13061 15.6782 5.71627 15.6088 6.42145L15.6 6.6001V12.0001H16.8Z" fill="#0C0C0C"/>
</svg>