<svg xmlns="http://www.w3.org/2000/svg" width="24" height="24" viewBox="0 0 24 24" fill="none">
  <path d="M8.38481 2.4791L7.52478 2.73833C5.96055 3.20984 4.81168 4.54564 4.57951 6.16281C4.22315 8.64528 5.02022 11.5469 6.94076 14.8734C8.85726 18.1929 10.9667 20.332 13.289 21.2677C14.8125 21.8815 16.554 21.5511 17.7467 20.4216L18.3981 19.8047C19.2711 18.978 19.3976 17.6328 18.694 16.6578L17.0661 14.4017C16.6154 13.7769 15.8169 13.5083 15.0802 13.7335L12.6192 14.4859L12.5556 14.4984C12.2843 14.538 11.6588 13.9511 10.8787 12.5999C10.0625 11.1862 9.89334 10.3596 10.1187 10.1465L11.3707 8.979C12.309 8.10401 12.5862 6.72876 12.0602 5.55858L11.2664 3.79293C10.7722 2.69344 9.53899 2.13119 8.38481 2.4791ZM10.1719 4.28495L10.9657 6.05061C11.2811 6.75221 11.1149 7.57677 10.5523 8.10138L9.29722 9.27177C8.4943 10.031 8.76024 11.3306 9.83944 13.1999C10.8549 14.9586 11.7813 15.8278 12.7767 15.6771L12.9258 15.6451L15.431 14.8811C15.6766 14.806 15.9428 14.8956 16.093 15.1038L17.7209 17.3599C18.0726 17.8475 18.0094 18.5201 17.573 18.9334L16.9216 19.5503C16.0697 20.3571 14.8257 20.5931 13.7375 20.1546C11.6998 19.3336 9.77405 17.3808 7.97999 14.2734C6.18227 11.1597 5.45471 8.51108 5.76733 6.33333C5.93316 5.17821 6.75379 4.22406 7.8711 3.88727L8.73113 3.62804C9.30822 3.45408 9.9248 3.73521 10.1719 4.28495Z" fill="#0C0C0C"/>
</svg>