<svg xmlns="http://www.w3.org/2000/svg" width="24" height="24" viewBox="0 0 24 24" fill="none">
  <path d="M12 2.9999C12 2.66853 11.7314 2.3999 11.4 2.3999C11.0686 2.3999 10.8 2.66853 10.8 2.9999V10.7999H2.99999C2.66863 10.7999 2.39999 11.0685 2.39999 11.3999C2.39999 11.7313 2.66863 11.9999 2.99999 11.9999H10.8V19.7999C10.8 20.1312 11.0686 20.3999 11.4 20.3999C11.7314 20.3999 12 20.1312 12 19.7999V11.9999H19.8C20.1313 11.9999 20.4 11.7313 20.4 11.3999C20.4 11.0685 20.1313 10.7999 19.8 10.7999H12V2.9999Z" fill="#0C0C0C"/>
</svg>