<svg xmlns="http://www.w3.org/2000/svg" width="24" height="24" viewBox="0 0 24 24" fill="none">
  <path d="M13.8 4.79999C13.8 3.80587 12.9941 2.99999 12 2.99999C11.0059 2.99999 10.2 3.80587 10.2 4.79999H9C9 3.14314 10.3431 1.79999 12 1.79999C13.6568 1.79999 15 3.14314 15 4.79999H20.4C20.7313 4.79999 21 5.06862 21 5.39999C21 5.73136 20.7313 5.99999 20.4 5.99999H19.7352L18.1799 19.475C18.0402 20.6861 17.0148 21.6 15.7957 21.6H8.20426C6.9852 21.6 5.9598 20.6861 5.82007 19.475L4.2636 5.99999H3.6C3.30545 5.99999 3.06047 5.78773 3.00967 5.50784L3 5.39999C3 5.06862 3.26863 4.79999 3.6 4.79999H13.8ZM18.5256 5.99999H5.4732L7.01216 19.3375C7.08203 19.943 7.59473 20.4 8.20426 20.4H15.7957C16.4053 20.4 16.918 19.943 16.9878 19.3375L18.5256 5.99999ZM10.2 8.99999C10.4946 8.99999 10.7395 9.18571 10.7903 9.43062L10.8 9.52499V16.875C10.8 17.1649 10.5314 17.4 10.2 17.4C9.90545 17.4 9.66047 17.2142 9.60967 16.9693L9.6 16.875V9.52499C9.6 9.23504 9.86863 8.99999 10.2 8.99999ZM13.8 8.99999C14.0946 8.99999 14.3395 9.18571 14.3903 9.43062L14.4 9.52499V16.875C14.4 17.1649 14.1313 17.4 13.8 17.4C13.5054 17.4 13.2605 17.2142 13.2097 16.9693L13.2 16.875V9.52499C13.2 9.23504 13.4687 8.99999 13.8 8.99999Z" fill="#FF4548"/>
</svg>