<svg xmlns="http://www.w3.org/2000/svg" width="24" height="24" viewBox="0 0 24 24" fill="none">
  <path d="M10.2 3.6001C13.8451 3.6001 16.8 6.55501 16.8 10.2001C16.8 11.8066 16.226 13.2792 15.2719 14.4236L20.2243 19.3758C20.4586 19.6101 20.4586 19.9901 20.2243 20.2244C20.016 20.4326 19.6927 20.4558 19.4588 20.2938L19.3757 20.2244L14.4235 15.272C13.2791 16.2261 11.8066 16.8001 10.2 16.8001C6.55492 16.8001 3.60001 13.8452 3.60001 10.2001C3.60001 6.55501 6.55492 3.6001 10.2 3.6001ZM10.2 4.8001C7.21767 4.8001 4.80001 7.21776 4.80001 10.2001C4.80001 13.1825 7.21767 15.6001 10.2 15.6001C13.1824 15.6001 15.6 13.1825 15.6 10.2001C15.6 7.21776 13.1824 4.8001 10.2 4.8001Z" fill="#0C0C0C"/>
</svg>