<svg xmlns="http://www.w3.org/2000/svg" width="32" height="32" viewBox="0 0 32 32" fill="none">
  <path d="M3.05721 11.8123C3.64807 9.98485 4.62143 8.30741 5.90575 6.88583C6.12294 6.64543 6.46366 6.55974 6.76871 6.66883L9.83798 7.76627C10.6701 8.06363 11.5857 7.63013 11.8831 6.798C11.9123 6.71619 11.9348 6.63211 11.9504 6.54677L12.5351 3.33717C12.5933 3.01803 12.8384 2.7656 13.1556 2.69808C14.0839 2.50048 15.0358 2.4 16 2.4C16.9637 2.4 17.9149 2.50037 18.8427 2.69771C19.1598 2.76519 19.405 3.01746 19.4632 3.33647L20.0496 6.54664C20.2082 7.41595 21.0414 7.99216 21.9107 7.83362C21.9962 7.81803 22.0803 7.79551 22.1619 7.76632L25.2314 6.66883C25.5363 6.55974 25.8771 6.64543 26.0942 6.88583C27.3786 8.30741 28.352 9.98485 28.9429 11.8123C29.0426 12.1205 28.9464 12.4585 28.6994 12.6682L26.2117 14.7804C25.5381 15.3523 25.4557 16.3621 26.0277 17.0357C26.0838 17.1019 26.1454 17.1634 26.2117 17.2197L28.6994 19.3318C28.9464 19.5414 29.0426 19.8795 28.9429 20.1877C28.352 22.0152 27.3786 23.6926 26.0942 25.1142C25.8771 25.3546 25.5363 25.4403 25.2314 25.3312L22.1621 24.2338C21.3299 23.9363 20.4144 24.3699 20.117 25.2019C20.0877 25.2838 20.0653 25.3678 20.0496 25.4536L19.4632 28.6635C19.405 28.9826 19.1598 29.2349 18.8427 29.3022C17.9149 29.4997 16.9637 29.6 16 29.6C15.0358 29.6 14.0839 29.4995 13.1556 29.3019C12.8384 29.2344 12.5933 28.9819 12.5351 28.6629L11.9504 25.4534C11.7919 24.584 10.9587 24.0078 10.0893 24.1664C10.0039 24.1819 9.9198 24.2045 9.8381 24.2338L6.76871 25.3312C6.46366 25.4403 6.12294 25.3546 5.90575 25.1142C4.62143 23.6926 3.64807 22.0152 3.05721 20.1877C2.95753 19.8795 3.05364 19.5414 3.30063 19.3318L5.78838 17.2197C6.46196 16.6477 6.54434 15.638 5.97239 14.9644C5.91615 14.8982 5.85462 14.8366 5.78841 14.7804L3.30063 12.6682C3.05364 12.4585 2.95753 12.1205 3.05721 11.8123ZM4.75409 11.8033L6.82399 13.5607C6.95646 13.6732 7.07954 13.7963 7.19202 13.9288C8.33593 15.2759 8.17116 17.2954 6.82396 18.4394L4.75409 20.1966C5.22137 21.4482 5.89569 22.6115 6.74598 23.6402L9.29954 22.727C9.46319 22.6686 9.63134 22.6235 9.8023 22.5923C11.5409 22.2752 13.2074 23.4277 13.5245 25.1664L14.0109 27.836C14.6634 27.9448 15.328 28 16 28C16.6715 28 17.3357 27.945 17.9878 27.8362L18.4755 25.1662C18.5067 24.9954 18.5518 24.8272 18.6102 24.6635C19.205 22.9994 21.0363 22.1323 22.7006 22.727L25.2541 23.6402C26.1043 22.6115 26.7787 21.4482 27.2459 20.1966L25.176 18.4392C25.0435 18.3267 24.9205 18.2037 24.808 18.0712C23.6642 16.724 23.829 14.7046 25.1762 13.5607L27.2459 11.8033C26.7787 10.5518 26.1043 9.38853 25.2541 8.3599L22.7005 9.27294C22.5368 9.33143 22.3686 9.37648 22.1978 9.40766C20.4592 9.72474 18.7926 8.57232 18.4757 6.83391L17.9878 4.16376C17.3357 4.05509 16.6715 4 16 4C15.328 4 14.6634 4.05517 14.0109 4.16399L13.5245 6.83368C13.4933 7.00466 13.4482 7.17279 13.3898 7.33643C12.795 9.00067 10.9638 9.86768 9.29942 9.2729L6.74598 8.3599C5.89569 9.38853 5.22137 10.5518 4.75409 11.8033ZM12 16C12 13.7909 13.7909 12 16 12C18.2091 12 20 13.7909 20 16C20 18.2091 18.2091 20 16 20C13.7909 20 12 18.2091 12 16ZM13.6 16C13.6 17.3254 14.6746 18.4 16 18.4C17.3254 18.4 18.4 17.3254 18.4 16C18.4 14.6745 17.3254 13.6 16 13.6C14.6746 13.6 13.6 14.6745 13.6 16Z" fill="#0C0C0C"/>
</svg>