<svg xmlns="http://www.w3.org/2000/svg" width="32" height="32" viewBox="0 0 32 32" fill="none">
  <path d="M14.5669 4.63799C15.1538 3.44879 16.8496 3.4488 17.4365 4.63799L20.5251 10.8964L27.4317 11.9C28.7442 12.0907 29.2682 13.7034 28.3184 14.6291L23.3208 19.5005L24.5007 26.3792C24.7248 27.6862 23.353 28.683 22.1791 28.0659L16.0018 24.8182L9.8243 28.0659C8.65049 28.683 7.27862 27.6862 7.5028 26.3792L8.68257 19.5005L3.68494 14.6291C2.73531 13.7034 3.25934 12.0907 4.57169 11.9L11.4782 10.8964L14.5669 4.63799ZM16.0018 5.3461L12.913 11.6045C12.6799 12.0767 12.2295 12.404 11.7083 12.4798L4.80176 13.4833L9.79939 18.3549C10.1765 18.7224 10.3486 19.252 10.2595 19.771L9.07976 26.6496L15.2572 23.4021C15.7233 23.157 16.2802 23.157 16.7463 23.4021L22.9237 26.6496L21.7439 19.771C21.6549 19.252 21.8269 18.7224 22.204 18.3549L27.2016 13.4833L20.2951 12.4798C19.7739 12.404 19.3235 12.0767 19.0904 11.6045L16.0018 5.3461Z" fill="#0C0C0C"/>
</svg>