<svg xmlns="http://www.w3.org/2000/svg" width="25" height="24" viewBox="0 0 25 24" fill="none">
  <g clip-path="url(#clip0_2052_71)">
    <path d="M16.25 9.9375C17.78 11.0361 19.6164 11.6263 21.5 11.625V7.875C20.1076 7.875 18.7723 7.32188 17.7877 6.33731C16.8031 5.35274 16.25 4.01739 16.25 2.625H12.5V14.625C12.5 15.0948 12.3739 15.5559 12.1349 15.9603C11.8959 16.3647 11.5528 16.6976 11.1413 16.9242C10.7298 17.1508 10.265 17.2629 9.79548 17.2486C9.32594 17.2344 8.86882 17.0944 8.47181 16.8433C8.0748 16.5922 7.75245 16.2392 7.53838 15.821C7.32432 15.4029 7.22639 14.9349 7.25481 14.466C7.28323 13.9971 7.43695 13.5445 7.69995 13.1552C7.96294 12.766 8.32557 12.4544 8.75 12.2531V8.35312C7.55617 8.56716 6.44816 9.11732 5.55605 9.93901C4.66394 10.7607 4.02474 11.8198 3.71349 12.9921C3.40224 14.1643 3.43185 15.4011 3.79885 16.5571C4.16585 17.7131 4.855 18.7404 5.78541 19.5185C6.71583 20.2965 7.84889 20.793 9.0516 20.9497C10.2543 21.1063 11.4767 20.9166 12.5754 20.4029C13.6741 19.8891 14.6034 19.0726 15.2543 18.0492C15.9052 17.0257 16.2506 15.8379 16.25 14.625V9.9375Z" stroke="#0C0C0C" stroke-width="1.2" stroke-linecap="round" stroke-linejoin="round"/>
  </g>
  <defs>
    <clipPath id="clip0_2052_71">
      <rect width="24" height="24" fill="white" transform="translate(0.5)"/>
    </clipPath>
  </defs>
</svg>