<svg xmlns="http://www.w3.org/2000/svg" width="24" height="24" viewBox="0 0 24 24" fill="none">
  <path d="M8.99998 15.6H15C15.3313 15.6 15.6 15.8687 15.6 16.2C15.6 16.4946 15.3877 16.7395 15.1079 16.7903L15 16.8H8.99998C8.66861 16.8 8.39998 16.5313 8.39998 16.2C8.39998 15.9054 8.61223 15.6605 8.89212 15.6097L8.99998 15.6ZM6.59998 10.8H17.4C17.7313 10.8 18 11.0686 18 11.4C18 11.6946 17.7877 11.9395 17.5079 11.9903L17.4 12H6.59998C6.26861 12 5.99998 11.7314 5.99998 11.4C5.99998 11.1054 6.21223 10.8605 6.49212 10.8097L6.59998 10.8ZM4.19998 6H19.8C20.1313 6 20.4 6.26863 20.4 6.6C20.4 6.89455 20.1877 7.13953 19.9079 7.19033L19.8 7.2H4.19998C3.86861 7.2 3.59998 6.93137 3.59998 6.6C3.59998 6.30545 3.81223 6.06047 4.09212 6.00967L4.19998 6Z" fill="#0C0C0C"/>
</svg>