<svg xmlns="http://www.w3.org/2000/svg" width="44" height="14" viewBox="0 0 44 14" fill="none">
  <path d="M16.2251 13.1875L18.4251 0.8125H21.8626L19.7313 13.1875H16.2251Z" fill="#3C58BF"/>
  <path d="M16.2251 13.1875L19.0438 0.8125H21.8626L19.7313 13.1875H16.2251Z" fill="#293688"/>
  <path d="M32.175 0.949995C31.4875 0.674995 30.3875 0.399994 29.0125 0.399994C25.575 0.399994 23.1 2.11874 23.1 4.59374C23.1 6.44999 24.8187 7.41249 26.1937 8.03124C27.5687 8.64999 27.9813 9.06249 27.9813 9.61249C27.9813 10.4375 26.8813 10.85 25.9188 10.85C24.5438 10.85 23.7875 10.6437 22.6188 10.1625L22.1375 9.95624L21.6562 12.775C22.4813 13.1187 23.9938 13.4625 25.575 13.4625C29.2188 13.4625 31.625 11.7437 31.625 9.13124C31.625 7.68749 30.7313 6.58749 28.6688 5.69374C27.4313 5.07499 26.675 4.73124 26.675 4.11249C26.675 3.56249 27.2938 3.01249 28.6688 3.01249C29.8375 3.01249 30.6625 3.21874 31.2812 3.49374L31.625 3.63124L32.175 0.949995Z" fill="#3C58BF"/>
  <path d="M32.175 0.949995C31.4875 0.674995 30.3875 0.399994 29.0125 0.399994C25.575 0.399994 23.7188 2.11874 23.7188 4.59374C23.7188 6.44999 24.8187 7.41249 26.1937 8.03124C27.5687 8.64999 27.9813 9.06249 27.9813 9.61249C27.9813 10.4375 26.8813 10.85 25.9188 10.85C24.5438 10.85 23.7875 10.6437 22.6188 10.1625L22.1375 9.95624L21.6562 12.775C22.4813 13.1187 23.9938 13.4625 25.575 13.4625C29.2188 13.4625 31.625 11.7437 31.625 9.13124C31.625 7.68749 30.7313 6.58749 28.6688 5.69374C27.4313 5.07499 26.675 4.73124 26.675 4.11249C26.675 3.56249 27.2938 3.01249 28.6688 3.01249C29.8375 3.01249 30.6625 3.21874 31.2812 3.49374L31.625 3.63124L32.175 0.949995Z" fill="#293688"/>
  <path d="M38.0876 0.8125C37.2626 0.8125 36.6438 0.881249 36.3 1.70625L31.1438 13.1875H34.8563L35.5438 11.125H39.9438L40.3563 13.1875H43.6563L40.7688 0.8125H38.0876ZM36.5063 9.0625C36.7125 8.44375 37.8813 5.41875 37.8813 5.41875C37.8813 5.41875 38.1563 4.6625 38.3625 4.18125L38.5688 5.35C38.5688 5.35 39.2563 8.44375 39.3938 9.13125H36.5063V9.0625Z" fill="#3C58BF"/>
  <path d="M38.9125 0.8125C38.0875 0.8125 37.4688 0.881249 37.125 1.70625L31.1438 13.1875H34.8563L35.5438 11.125H39.9438L40.3563 13.1875H43.6563L40.7688 0.8125H38.9125ZM36.5063 9.0625C36.7813 8.375 37.8813 5.41875 37.8813 5.41875C37.8813 5.41875 38.1563 4.6625 38.3625 4.18125L38.5688 5.35C38.5688 5.35 39.2563 8.44375 39.3938 9.13125H36.5063V9.0625Z" fill="#293688"/>
  <path d="M9.8999 9.475L9.55615 7.68751C8.9374 5.62501 6.94365 3.35626 4.74365 2.25626L7.8374 13.2563H11.5499L17.1187 0.881256H13.4062L9.8999 9.475Z" fill="#3C58BF"/>
  <path d="M9.8999 9.475L9.55615 7.68751C8.9374 5.62501 6.94365 3.35626 4.74365 2.25626L7.8374 13.2563H11.5499L17.1187 0.881256H14.0937L9.8999 9.475Z" fill="#293688"/>
  <path d="M0.34375 0.8125L0.9625 0.950001C5.3625 1.98125 8.3875 4.59375 9.55625 7.6875L8.31875 1.84375C8.1125 1.01875 7.49375 0.8125 6.7375 0.8125H0.34375Z" fill="#FFBC00"/>
  <path d="M0.34375 0.8125C4.74375 1.84375 8.3875 4.525 9.55625 7.61875L8.3875 2.7375C8.18125 1.9125 7.49375 1.43125 6.7375 1.43125L0.34375 0.8125Z" fill="#F7981D"/>
  <path d="M0.34375 0.8125C4.74375 1.84375 8.3875 4.525 9.55625 7.61875L8.73125 4.9375C8.525 4.1125 8.25 3.2875 7.2875 2.94375L0.34375 0.8125Z" fill="#ED7C00"/>
  <path d="M13.3375 9.0625L11 6.725L9.9 9.3375L9.625 7.61875C9.00625 5.55625 7.0125 3.2875 4.8125 2.1875L7.90625 13.1875H11.6187L13.3375 9.0625Z" fill="#051244"/>
  <path d="M19.7313 13.1875L16.7751 10.1625L16.2251 13.1875H19.7313Z" fill="#051244"/>
  <path d="M27.6375 8.92499C27.9125 9.19999 28.05 9.40624 27.9813 9.68124C27.9813 10.5062 26.8813 10.9187 25.9188 10.9187C24.5438 10.9187 23.7875 10.7125 22.6188 10.2312L22.1375 10.025L21.6562 12.8437C22.4813 13.1875 23.9938 13.5312 25.575 13.5312C27.775 13.5312 29.5625 12.9125 30.5938 11.8125L27.6375 8.92499Z" fill="#051244"/>
  <path d="M31.625 13.1875H34.8563L35.5438 11.125H39.9437L40.3563 13.1875H43.6562L42.4875 8.16874L38.3625 4.18124L38.5687 5.28124C38.5687 5.28124 39.2562 8.37499 39.3937 9.06249H36.5062C36.7812 8.37499 37.8812 5.41874 37.8812 5.41874C37.8812 5.41874 38.1562 4.66249 38.3625 4.18124" fill="#051244"/>
</svg>