<svg xmlns="http://www.w3.org/2000/svg" width="32" height="32" viewBox="0 0 32 32" fill="none">
  <path d="M23.2 17.6H21.6C21.1582 17.6 20.8 17.9582 20.8 18.4C20.8 18.8418 21.1582 19.2 21.6 19.2H23.2C23.6417 19.2 24 18.8418 24 18.4C24 17.9582 23.6417 17.6 23.2 17.6ZM7.19999 4.8C5.8745 4.8 4.79999 5.87452 4.79999 7.2V23.2C4.79999 25.4091 6.59085 27.2 8.79999 27.2H24.8C26.1254 27.2 27.2 26.1254 27.2 24.8V10.4C27.2 9.35503 26.5321 8.46604 25.6 8.13656V7.2C25.6 5.87452 24.5254 4.8 23.2 4.8H7.19999ZM6.39999 23.2V9.46344C6.65021 9.55188 6.91948 9.6 7.19999 9.6H24.8C25.2417 9.6 25.6 9.95818 25.6 10.4V24.8C25.6 25.2418 25.2417 25.6 24.8 25.6H8.79999C7.4745 25.6 6.39999 24.5254 6.39999 23.2ZM7.19999 6.4H23.2C23.6417 6.4 24 6.75818 24 7.2V8H7.19999C6.75816 8 6.39999 7.64183 6.39999 7.2C6.39999 6.75818 6.75816 6.4 7.19999 6.4Z" fill="#0C0C0C"/>
</svg>